<?xml version="1.0" encoding="iso-8859-1"?>
<!-- Generator: Adobe Illustrator 19.0.0, SVG Export Plug-In . SVG Version: 6.00 Build 0)  -->
<svg version="1.1" id="Layer_1" xmlns="http://www.w3.org/2000/svg" xmlns:xlink="http://www.w3.org/1999/xlink" x="0px" y="0px"
	 viewBox="0 0 496 496" style="enable-background:new 0 0 496 496;" xml:space="preserve">
<g>
	<g>
		<g>
			<rect x="200" width="16" height="16"/>
			<rect x="177.364" y="9.379" transform="matrix(0.7071 0.7071 -0.7071 0.7071 66.5804 -125.9822)" width="16" height="16"/>
			<rect x="168" y="32" width="16" height="16"/>
			<rect x="177.359" y="54.637" transform="matrix(-0.7071 -0.7071 0.7071 -0.7071 272.1364 237.9974)" width="16" height="16"/>
			<rect x="200" y="64" width="16" height="16"/>
			<rect x="222.621" y="54.623" transform="matrix(0.7071 0.7071 -0.7071 0.7071 111.8287 -144.7319)" width="16" height="16"/>
			<rect x="232" y="32" width="16" height="16"/>
			<rect x="222.626" y="9.372" transform="matrix(0.7071 0.7071 -0.7071 0.7071 79.833 -157.9892)" width="16" height="16"/>
			<rect x="56" y="24" width="16" height="16"/>
			<rect x="33.372" y="33.376" transform="matrix(0.7071 0.7071 -0.7071 0.7071 41.3747 -17.1353)" width="16" height="16"/>
			<rect x="24" y="56" width="16" height="16"/>
			<rect x="33.374" y="78.627" transform="matrix(-0.7071 -0.7071 0.7071 -0.7071 9.3761 177.1374)" width="16" height="16"/>
			<rect x="56" y="88" width="16" height="16"/>
			<rect x="78.625" y="78.624" transform="matrix(-0.7071 -0.7071 0.7071 -0.7071 86.6261 209.1298)" width="16" height="16"/>
			<rect x="88" y="56" width="16" height="16"/>
			<rect x="78.622" y="33.373" transform="matrix(0.7071 0.7071 -0.7071 0.7071 54.6263 -49.1334)" width="16" height="16"/>
			<rect x="248" y="96" width="16" height="16"/>
			<rect x="264" y="112" width="16" height="16"/>
			<rect x="280" y="96" width="16" height="16"/>
			<rect x="264" y="80" width="16" height="16"/>
			<path d="M112,336c-22.056,0-40,17.944-40,40c0,22.056,17.944,40,40,40c22.056,0,40-17.944,40-40C152,353.944,134.056,336,112,336
				z M112,400c-13.232,0-24-10.768-24-24s10.768-24,24-24s24,10.768,24,24S125.232,400,112,400z"/>
			<path d="M464,376V208h16v-16H352v16h16v168h-58.168c1.32-7.824,2.168-15.808,2.168-24c0-61.648-38.336-115.488-96-135.792V112h16
				V96H104v16h16v104.208C62.336,236.512,24,290.352,24,352c0,8.192,0.848,16.176,2.168,24H0v16h29.768
				C47.16,451.984,102.488,496,168,496s120.84-44.016,138.232-104H368v56c0,26.472,21.528,48,48,48s48-21.528,48-48v-56h32v-16H464z
				 M130.352,229.648l5.648-1.736V112h64v115.912l5.648,1.736c28.72,8.824,52.352,26.904,68.264,50.352H62.088
				C78,256.56,101.632,238.472,130.352,229.648z M246.528,296c-3.312,9.288-12.112,16-22.528,16s-19.216-6.712-22.528-16H246.528z
				 M168,480c-70.576,0-128-57.424-128-128c0-19.976,4.608-38.976,12.84-56h131.968c3.72,18.232,19.872,32,39.192,32
				s35.472-13.768,39.192-32h19.968c8.232,17.024,12.84,36.024,12.84,56C296,422.576,238.576,480,168,480z M448,448
				c0,17.648-14.352,32-32,32s-32-14.352-32-32v-96h64V448z M448,336h-64V208h64V336z"/>
			<path d="M352.704,96.104c-13.84,14.688-18.184,26.768-12.912,35.896c3.504,6.064,10.24,9.104,20.136,9.104
				c5,0,10.816-0.776,17.416-2.336c3.576-0.848,7.368-1.984,11.232-3.248C393.488,158.696,402.464,176,416,176
				s22.512-17.304,27.432-40.48c3.864,1.264,7.656,2.4,11.232,3.248c6.6,1.56,12.408,2.336,17.416,2.336
				c9.88,0,16.632-3.04,20.136-9.104c5.272-9.136,0.928-21.208-12.912-35.896c-2.52-2.672-5.352-5.384-8.376-8.104
				c3.024-2.72,5.856-5.424,8.376-8.104c13.84-14.688,18.184-26.768,12.912-35.896c-5.264-9.128-17.88-11.416-37.544-6.768
				c-3.576,0.848-7.368,1.984-11.232,3.248C438.512,17.304,429.536,0,416,0s-22.512,17.304-27.432,40.48
				c-3.864-1.264-7.656-2.4-11.232-3.248c-19.632-4.648-32.272-2.368-37.544,6.768c-5.272,9.136-0.928,21.208,12.912,35.896
				c2.52,2.672,5.352,5.384,8.376,8.104C358.056,90.72,355.224,93.424,352.704,96.104z M478.424,123.896
				c-2.08,2.08-13.696,2.024-32.32-4.328c0.552-4.392,0.952-8.904,1.264-13.44c3.84-2.576,7.552-5.192,11.048-7.84
				C473.224,111.216,479.088,121.192,478.424,123.896z M472.776,50.784c2.944,0,4.824,0.432,5.528,1.112
				c0.744,2.84-5.096,12.864-19.904,25.816c-3.496-2.64-7.208-5.256-11.04-7.832c-0.312-4.536-0.712-9.032-1.264-13.416
				C458.152,52.336,467.336,50.784,472.776,50.784z M416.12,160.016c-2.832-0.776-8.592-10.848-12.408-30.144
				c4.032-1.704,8.152-3.64,12.288-5.664c4.144,2.032,8.264,3.968,12.296,5.672C424.504,149.168,418.8,159.24,416.12,160.016z
				 M415.88,15.984c2.832,0.776,8.592,10.848,12.408,30.144c-4.032,1.712-8.152,3.64-12.288,5.672
				c-4.144-2.032-8.264-3.968-12.296-5.672C407.496,26.832,413.2,16.76,415.88,15.984z M400.16,78.856
				c2.504-1.56,5.104-3.136,7.84-4.712c2.76-1.592,5.376-2.968,8-4.368c2.624,1.4,5.24,2.776,8,4.368
				c2.736,1.576,5.336,3.152,7.84,4.712C431.936,81.808,432,84.84,432,88c0,3.16-0.064,6.192-0.16,9.144
				c-2.504,1.56-5.104,3.136-7.84,4.712c-2.736,1.576-5.392,3.04-8,4.432c-2.608-1.392-5.264-2.856-8-4.432
				c-2.736-1.576-5.336-3.152-7.84-4.712C400.064,94.192,400,91.16,400,88C400,84.84,400.064,81.808,400.16,78.856z M353.576,52.104
				c0.752-0.752,2.752-1.216,5.872-1.216c5.504,0,14.584,1.544,26.448,5.584c-0.544,4.384-0.952,8.88-1.264,13.408
				c-3.84,2.576-7.552,5.192-11.048,7.84C358.776,64.784,352.912,54.808,353.576,52.104z M373.6,98.296
				c3.496,2.64,7.2,5.256,11.04,7.832c0.312,4.544,0.712,9.056,1.264,13.456c-18.608,6.368-30.184,6.456-32.208,4.528
				C352.952,121.272,358.792,111.248,373.6,98.296z"/>
		</g>
	</g>
</g>
<g>
</g>
<g>
</g>
<g>
</g>
<g>
</g>
<g>
</g>
<g>
</g>
<g>
</g>
<g>
</g>
<g>
</g>
<g>
</g>
<g>
</g>
<g>
</g>
<g>
</g>
<g>
</g>
<g>
</g>
</svg>
