<?xml version="1.0" encoding="iso-8859-1"?>
<!-- Generator: Adobe Illustrator 19.0.0, SVG Export Plug-In . SVG Version: 6.00 Build 0)  -->
<svg version="1.1" id="Layer_1" xmlns="http://www.w3.org/2000/svg" xmlns:xlink="http://www.w3.org/1999/xlink" x="0px" y="0px"
	 viewBox="0 0 512 512" style="enable-background:new 0 0 512 512;" xml:space="preserve">
<path style="fill:#FFCD00;" d="M256,512C114.839,512,0,397.161,0,256S114.839,0,256,0s256,114.839,256,256S397.161,512,256,512z"/>
<path style="fill:#FFA733;" d="M512,256C512,114.839,397.161,0,256,0v512C397.161,512,512,397.161,512,256z"/>
<path style="fill:#FFFFFF;" d="M372.895,256c0-9.225-7.475-16.699-16.699-16.699H140.785c7.757-38.067,41.491-66.797,81.816-66.797
	h133.594c9.225,0,16.699-7.475,16.699-16.699c0-9.225-7.475-16.699-16.699-16.699H222.601c-64.455,0-116.895,52.44-116.895,116.895
	s52.44,116.895,116.895,116.895h133.594c9.225,0,16.699-7.475,16.699-16.699c0-9.225-7.475-16.699-16.699-16.699H222.601
	c-40.325,0-74.059-28.731-81.816-66.797h215.411C365.42,272.699,372.895,265.225,372.895,256z"/>
<g>
	<path style="fill:#FFE6B3;" d="M372.895,256c0-9.225-7.475-16.699-16.699-16.699H256v33.399h100.196
		C365.42,272.699,372.895,265.225,372.895,256z"/>
	<path style="fill:#FFE6B3;" d="M372.895,356.196c0-9.225-7.475-16.699-16.699-16.699H256v33.399h100.196
		C365.42,372.895,372.895,365.42,372.895,356.196z"/>
	<path style="fill:#FFE6B3;" d="M356.196,139.105H256v33.399h100.196c9.225,0,16.699-7.475,16.699-16.699
		C372.895,146.58,365.42,139.105,356.196,139.105z"/>
</g>
<g>
</g>
<g>
</g>
<g>
</g>
<g>
</g>
<g>
</g>
<g>
</g>
<g>
</g>
<g>
</g>
<g>
</g>
<g>
</g>
<g>
</g>
<g>
</g>
<g>
</g>
<g>
</g>
<g>
</g>
</svg>
